<mxfile host="app.diagrams.net" modified="2021-07-10T06:30:26.619Z" agent="5.0 (Windows NT 10.0; Win64; x64) AppleWebKit/537.36 (KHTML, like Gecko) Chrome/92.0.4515.81 Safari/537.36 Edg/92.0.902.40" etag="3dAEGqy3NQtvi2WQMnsy" version="14.8.5" type="github">
  <diagram id="D7VErbJnjdf0bLNrKZfW" name="Page-1">
    <mxGraphModel dx="868" dy="449" grid="1" gridSize="10" guides="1" tooltips="1" connect="1" arrows="1" fold="1" page="1" pageScale="1" pageWidth="827" pageHeight="1169" math="0" shadow="0">
      <root>
        <mxCell id="0" />
        <mxCell id="1" parent="0" />
        <mxCell id="ECHKq5BZY2e60Pd86Z7T-2" style="rounded=0;orthogonalLoop=1;jettySize=auto;html=1;" edge="1" parent="1" source="ECHKq5BZY2e60Pd86Z7T-1">
          <mxGeometry relative="1" as="geometry">
            <mxPoint x="414" y="370" as="targetPoint" />
          </mxGeometry>
        </mxCell>
        <mxCell id="ECHKq5BZY2e60Pd86Z7T-1" value="&lt;p style=&quot;margin: 4px 0px 0px ; text-align: center ; font-size: 16px&quot;&gt;&lt;font face=&quot;Comic Sans MS&quot; style=&quot;font-size: 16px ; background-color: rgb(255 , 255 , 255)&quot;&gt;&lt;i&gt;&amp;lt;&amp;lt;Interface&amp;gt;&amp;gt;&lt;/i&gt;&lt;br&gt;&lt;b&gt;Servlet&lt;/b&gt;&lt;/font&gt;&lt;/p&gt;&lt;hr size=&quot;1&quot; style=&quot;font-size: 16px&quot;&gt;&lt;p style=&quot;margin: 0px 0px 0px 4px ; font-size: 16px&quot;&gt;&lt;/p&gt;&lt;p style=&quot;margin: 0px 0px 0px 4px ; font-size: 16px&quot;&gt;&lt;font face=&quot;Comic Sans MS&quot; style=&quot;font-size: 16px ; background-color: rgb(255 , 255 , 255)&quot;&gt;+ init(&lt;span style=&quot;font-style: italic&quot;&gt;ServletConfig&lt;/span&gt;&lt;span&gt;): void&lt;/span&gt;&lt;/font&gt;&lt;/p&gt;&lt;p style=&quot;margin: 0px 0px 0px 4px ; font-size: 16px&quot;&gt;&lt;font face=&quot;Comic Sans MS&quot; style=&quot;font-size: 16px ; background-color: rgb(255 , 255 , 255)&quot;&gt;+&amp;nbsp;getServletConfig(): ServletConfig&lt;/font&gt;&lt;/p&gt;&lt;p style=&quot;margin: 0px 0px 0px 4px ; font-size: 16px&quot;&gt;&lt;font face=&quot;Comic Sans MS&quot; style=&quot;font-size: 16px ; background-color: rgb(255 , 255 , 255)&quot;&gt;+ getServletInfo(): String&lt;/font&gt;&lt;/p&gt;&lt;p style=&quot;margin: 0px 0px 0px 4px ; font-size: 16px&quot;&gt;&lt;font face=&quot;Comic Sans MS&quot; style=&quot;font-size: 16px ; background-color: rgb(255 , 255 , 255)&quot;&gt;+ destroy(); void&lt;/font&gt;&lt;/p&gt;&lt;p style=&quot;margin: 0px 0px 0px 4px ; font-size: 16px&quot;&gt;&lt;font face=&quot;Comic Sans MS&quot; style=&quot;font-size: 16px ; background-color: rgb(255 , 255 , 255)&quot;&gt;&lt;br&gt;&lt;/font&gt;&lt;/p&gt;&lt;p style=&quot;margin: 0px 0px 0px 4px ; font-size: 16px&quot;&gt;&lt;span style=&quot;font-family: &amp;#34;comic sans ms&amp;#34; ; background-color: rgb(255 , 255 , 255)&quot;&gt;+ Service(ServletRequest,ServletResponse): void&lt;/span&gt;&lt;font face=&quot;Comic Sans MS&quot; style=&quot;font-size: 16px ; background-color: rgb(255 , 255 , 255)&quot;&gt;&lt;br&gt;&lt;/font&gt;&lt;/p&gt;" style="verticalAlign=top;align=left;overflow=fill;fontSize=12;fontFamily=Helvetica;html=1;" vertex="1" parent="1">
          <mxGeometry x="219" y="20" width="391" height="200" as="geometry" />
        </mxCell>
        <mxCell id="ECHKq5BZY2e60Pd86Z7T-3" value="&lt;p style=&quot;margin: 4px 0px 0px ; text-align: center ; font-size: 16px&quot;&gt;&lt;font face=&quot;Comic Sans MS&quot; style=&quot;font-size: 16px ; background-color: rgb(255 , 255 , 255)&quot;&gt;&lt;i&gt;&amp;lt;&amp;lt;&lt;/i&gt;&lt;/font&gt;&lt;span style=&quot;color: rgb(198 , 121 , 221) ; font-style: italic ; background-color: rgb(40 , 44 , 52) ; font-family: &amp;#34;jetbrains mono&amp;#34; , monospace ; font-size: 12pt ; text-align: left&quot;&gt;abstract&lt;/span&gt;&lt;i style=&quot;font-family: &amp;#34;comic sans ms&amp;#34;&quot;&gt;&amp;gt;&amp;gt;&lt;/i&gt;&lt;/p&gt;&lt;p style=&quot;margin: 4px 0px 0px ; text-align: center ; font-size: 16px&quot;&gt;&lt;font face=&quot;Comic Sans MS&quot; style=&quot;font-size: 16px ; background-color: rgb(255 , 255 , 255)&quot;&gt;&lt;span style=&quot;text-align: left&quot;&gt;&lt;b&gt;GenericServlet&lt;/b&gt;&lt;/span&gt;&lt;/font&gt;&lt;/p&gt;&lt;hr size=&quot;1&quot; style=&quot;font-size: 16px&quot;&gt;&lt;p style=&quot;margin: 0px 0px 0px 4px ; font-size: 16px&quot;&gt;&lt;/p&gt;&lt;p style=&quot;margin: 0px 0px 0px 4px ; font-size: 16px&quot;&gt;&lt;font face=&quot;Comic Sans MS&quot; style=&quot;font-size: 16px ; background-color: rgb(255 , 255 , 255)&quot;&gt;+ init(&lt;span style=&quot;font-style: italic&quot;&gt;ServletConfig&lt;/span&gt;&lt;span&gt;): void&lt;/span&gt;&lt;/font&gt;&lt;/p&gt;&lt;p style=&quot;margin: 0px 0px 0px 4px ; font-size: 16px&quot;&gt;&lt;font face=&quot;Comic Sans MS&quot; style=&quot;font-size: 16px ; background-color: rgb(255 , 255 , 255)&quot;&gt;+&amp;nbsp;getServletConfig(): ServletConfig&lt;/font&gt;&lt;/p&gt;&lt;p style=&quot;margin: 0px 0px 0px 4px ; font-size: 16px&quot;&gt;&lt;font face=&quot;Comic Sans MS&quot; style=&quot;font-size: 16px ; background-color: rgb(255 , 255 , 255)&quot;&gt;+ getServletInfo(): String&lt;/font&gt;&lt;/p&gt;&lt;p style=&quot;margin: 0px 0px 0px 4px ; font-size: 16px&quot;&gt;&lt;font face=&quot;Comic Sans MS&quot; style=&quot;font-size: 16px ; background-color: rgb(255 , 255 , 255)&quot;&gt;+ destroy(); void&lt;/font&gt;&lt;/p&gt;&lt;p style=&quot;margin: 0px 0px 0px 4px ; font-size: 16px&quot;&gt;&lt;font face=&quot;Comic Sans MS&quot; style=&quot;font-size: 16px ; background-color: rgb(255 , 255 , 255)&quot;&gt;&lt;br&gt;&lt;/font&gt;&lt;/p&gt;&lt;p style=&quot;margin: 0px 0px 0px 4px ; font-size: 16px&quot;&gt;&lt;span style=&quot;font-family: &amp;#34;comic sans ms&amp;#34; ; background-color: rgb(255 , 255 , 255)&quot;&gt;+ Service(ServletRequest,ServletResponse): void&lt;/span&gt;&lt;font face=&quot;Comic Sans MS&quot; style=&quot;font-size: 16px ; background-color: rgb(255 , 255 , 255)&quot;&gt;&lt;br&gt;&lt;/font&gt;&lt;/p&gt;&lt;p style=&quot;margin: 0px 0px 0px 4px ; font-size: 16px&quot;&gt;&lt;font face=&quot;Comic Sans MS&quot; style=&quot;font-size: 16px ; background-color: rgb(255 , 255 , 255)&quot;&gt;&lt;br&gt;&lt;/font&gt;&lt;/p&gt;&lt;p style=&quot;margin: 0px 0px 0px 4px ; font-size: 16px&quot;&gt;&lt;font face=&quot;Comic Sans MS&quot; style=&quot;font-size: 16px ; background-color: rgb(255 , 255 , 255)&quot;&gt;&lt;br&gt;&lt;/font&gt;&lt;/p&gt;" style="verticalAlign=top;align=left;overflow=fill;fontSize=12;fontFamily=Helvetica;html=1;" vertex="1" parent="1">
          <mxGeometry x="219" y="370" width="390" height="220" as="geometry" />
        </mxCell>
        <mxCell id="ECHKq5BZY2e60Pd86Z7T-4" value="" style="rounded=0;whiteSpace=wrap;html=1;" vertex="1" parent="1">
          <mxGeometry x="219" y="80" width="391" height="90" as="geometry" />
        </mxCell>
      </root>
    </mxGraphModel>
  </diagram>
</mxfile>
